<?xml version="1.0" standalone="no"?>
<!DOCTYPE svg PUBLIC "-//W3C//DTD SVG 20010904//EN"
 "http://www.w3.org/TR/2001/REC-SVG-20010904/DTD/svg10.dtd">
<svg version="1.0" xmlns="http://www.w3.org/2000/svg"
 width="444.000000pt" height="562.000000pt" viewBox="0 0 444.000000 562.000000"
 preserveAspectRatio="xMidYMid meet">

<g transform="translate(0.000000,562.000000) scale(0.100000,-0.100000)"
fill="#000000" stroke="none">
<path d="M2295 5334 c11 -11 28 -28 38 -39 l18 -20 -9 20 c-5 11 -7 26 -4 34
3 8 -1 12 -9 9 -8 -3 -23 -1 -34 5 l-20 9 20 -18z"/>
<path d="M2150 5275 c0 -2 34 -54 75 -114 41 -60 75 -112 75 -115 0 -6 73
-129 126 -211 93 -146 156 -251 193 -323 42 -80 60 -96 100 -85 20 5 23 -1
-114 228 -136 224 -280 455 -319 507 -49 68 -136 140 -136 113z"/>
<path d="M1498 5201 c-21 -4 -58 -18 -83 -31 -78 -40 -114 -88 -270 -355 -32
-55 -87 -149 -122 -208 -35 -59 -63 -112 -61 -116 2 -5 57 -37 123 -71 66 -34
128 -69 138 -78 20 -18 28 -11 73 73 36 66 123 213 176 297 24 38 62 98 86
135 63 102 142 192 187 216 22 12 42 23 44 25 10 6 -63 70 -102 90 -48 23
-135 34 -189 23z"/>
<path d="M3350 5029 c-19 -12 -41 -29 -48 -38 -7 -9 -76 -142 -152 -296 -77
-154 -151 -292 -165 -307 -58 -62 -61 -63 -405 -68 -349 -6 -367 -9 -411 -71
-13 -19 -16 -29 -8 -22 11 9 91 10 341 3 354 -10 399 -7 478 36 86 47 115 89
226 329 64 138 164 375 164 389 0 6 7 23 14 39 18 33 12 34 -34 6z"/>
<path d="M1785 4970 c-38 -48 -185 -275 -185 -286 0 -2 -28 -48 -63 -102 -102
-156 -177 -286 -177 -307 0 -12 16 -30 38 -45 20 -14 76 -53 123 -87 48 -35
90 -63 95 -63 11 0 40 44 81 120 16 30 60 105 98 165 38 61 91 148 118 194 27
47 62 101 78 120 16 20 29 42 29 49 0 7 -17 39 -38 70 -21 31 -53 84 -71 117
-32 58 -68 105 -80 105 -4 0 -24 -23 -46 -50z"/>
<path d="M2498 4433 c6 -2 18 -2 25 0 6 3 1 5 -13 5 -14 0 -19 -2 -12 -5z"/>
<path d="M3455 4192 c-99 -59 -193 -121 -200 -132 -6 -9 60 -125 153 -270 206
-320 329 -534 342 -590 23 -101 22 -100 77 -86 68 18 105 39 141 81 55 62 66
92 66 181 0 93 14 64 -215 426 -123 193 -223 356 -251 407 -9 17 -21 31 -25
31 -4 0 -44 -21 -88 -48z"/>
<path d="M325 4033 c-27 -10 -55 -24 -62 -33 -24 -31 40 -38 362 -39 169 -1
319 -4 333 -7 56 -13 112 -45 152 -86 35 -35 121 -159 177 -253 24 -40 106
-171 129 -206 13 -19 24 -40 24 -45 0 -14 59 -81 60 -68 0 6 -9 23 -21 38 -11
14 -18 29 -16 33 8 13 -12 55 -22 48 -5 -3 -12 -1 -16 5 -3 5 -2 10 4 10 9 0
9 37 0 65 -2 6 2 20 9 32 14 24 10 28 -35 37 -35 8 -58 30 -48 45 3 7 0 8 -10
5 -11 -5 -14 -2 -9 10 5 12 2 15 -10 10 -11 -4 -15 -2 -11 7 7 19 -8 40 -31
43 -11 2 -18 10 -16 20 2 9 -6 29 -16 44 -10 15 -36 60 -57 100 -61 117 -128
160 -290 188 -102 17 -172 14 -186 -8 -10 -15 -197 -15 -227 1 -36 19 -116 21
-167 4z m1100 -583 c3 -5 1 -10 -4 -10 -6 0 -11 5 -11 10 0 6 2 10 4 10 3 0 8
-4 11 -10z"/>
<path d="M3065 3943 c-44 -25 -105 -60 -135 -78 -30 -17 -56 -38 -58 -46 -1
-8 8 -31 22 -50 24 -35 254 -400 354 -564 30 -49 57 -92 59 -95 2 -2 82 -6
178 -7 l175 -3 0 24 c0 24 -18 75 -30 86 -4 3 -66 102 -139 220 -74 118 -155
249 -181 290 -26 41 -54 89 -62 105 -9 17 -25 47 -36 68 -11 21 -25 51 -31 68
-5 16 -16 29 -23 28 -7 0 -49 -21 -93 -46z"/>
<path d="M907 3766 c-8 -8 -18 -12 -22 -8 -4 4 -6 3 -4 -3 1 -5 0 -17 -4 -25
-3 -8 -10 -31 -16 -50 l-11 -35 30 35 c27 32 35 51 31 73 -1 5 3 6 8 3 5 -4
12 -2 15 3 11 17 -12 22 -27 7z"/>
<path d="M1046 3708 c3 -4 11 -5 19 -1 21 7 19 12 -4 10 -11 0 -18 -5 -15 -9z"/>
<path d="M802 3601 c-3 -9 -13 -21 -23 -28 -9 -7 -16 -25 -16 -40 0 -15 -6
-29 -12 -31 -6 -2 -17 -10 -25 -17 -7 -8 -16 -12 -19 -9 -3 3 -3 -4 0 -16 4
-16 0 -23 -15 -27 -11 -2 -26 -18 -32 -33 -7 -17 -21 -30 -33 -32 -16 -2 -22
-10 -23 -29 -1 -14 -4 -31 -8 -37 -3 -6 0 -13 6 -15 26 -11 -16 -27 -68 -27
-43 0 -53 -3 -57 -20 -3 -14 -14 -20 -31 -20 -17 0 -26 -5 -26 -16 0 -13 8
-15 35 -12 21 2 35 0 35 -7 0 -7 -14 -9 -35 -7 -27 3 -35 1 -35 -12 0 -9 -12
-19 -27 -22 -29 -7 -75 -49 -65 -58 10 -11 7 -126 -3 -123 -5 2 -10 22 -10 45
0 22 -4 44 -8 48 -4 5 -5 1 -2 -8 4 -9 1 -19 -5 -23 -9 -6 -9 -10 1 -16 11 -7
11 -9 1 -9 -10 0 -10 -6 2 -27 8 -16 17 -37 21 -48 5 -15 8 -16 14 -6 7 11 11
10 19 -6 8 -15 8 -23 -1 -33 -10 -10 -9 -11 2 -5 11 6 13 4 8 -8 -3 -9 -1 -19
5 -23 7 -5 8 -2 3 6 -5 8 -3 11 6 8 8 -3 13 -11 11 -17 -1 -6 2 -11 8 -11 5 0
10 5 10 12 0 9 3 9 11 1 9 -9 34 33 103 170 50 100 95 185 101 189 5 4 7 8 2
8 -7 0 15 44 45 90 9 14 18 32 20 40 2 8 11 23 21 35 10 11 16 28 14 37 -3 10
-1 16 3 15 4 -1 8 0 8 3 -1 3 15 31 35 62 21 33 34 63 31 72 -3 9 -2 16 3 16
4 0 13 8 20 18 9 15 8 19 -4 19 -8 0 -18 -7 -21 -16z m-127 -251 c3 -5 1 -10
-4 -10 -6 0 -11 5 -11 10 0 6 2 10 4 10 3 0 8 -4 11 -10z"/>
<path d="M505 3331 c-7 -12 12 -24 25 -16 11 7 4 25 -10 25 -5 0 -11 -4 -15
-9z"/>
<path d="M2433 3148 c-15 -18 -35 -58 -29 -58 2 0 13 16 25 35 20 35 22 46 4
23z"/>
<path d="M4027 3117 c-32 -38 -34 -52 -7 -37 19 10 46 58 37 66 -2 2 -15 -11
-30 -29z"/>
<path d="M2391 3064 c0 -11 3 -14 6 -6 3 7 2 16 -1 19 -3 4 -6 -2 -5 -13z"/>
<path d="M2374 3042 c3 -5 0 -13 -6 -15 -9 -4 -10 -6 -1 -6 17 -1 25 16 12 25
-7 4 -9 3 -5 -4z"/>
<path d="M1118 2988 c-10 -10 -18 -22 -18 -27 0 -5 -22 -48 -50 -97 -27 -49
-50 -99 -50 -111 0 -13 13 -32 34 -48 47 -36 156 -44 581 -45 301 0 354 2 373
16 21 14 22 22 22 158 0 107 -3 146 -13 155 -9 7 -148 11 -438 13 -393 3 -425
2 -441 -14z"/>
<path d="M2722 2882 c-11 -25 -11 -25 4 -10 9 9 15 21 13 27 -2 6 -10 -2 -17
-17z"/>
<path d="M2527 2829 c-15 -11 -32 -17 -38 -13 -8 4 -9 3 -5 -4 4 -7 2 -12 -5
-12 -15 0 -55 -44 -91 -99 -50 -80 -36 -143 68 -299 68 -103 170 -247 244
-347 37 -49 70 -98 73 -107 4 -10 11 -18 17 -18 16 0 42 69 36 94 -3 12 -34
64 -69 116 -35 52 -103 154 -152 225 -149 220 -158 254 -100 373 19 40 31 72
28 72 -4 0 2 6 13 14 10 8 16 17 13 20 -3 4 -18 -3 -32 -15z"/>
<path d="M3846 2793 c-6 -14 -5 -15 5 -6 7 7 10 15 7 18 -3 3 -9 -2 -12 -12z"/>
<path d="M2664 2789 c-3 -5 1 -9 8 -10 7 0 3 -5 -9 -11 -13 -6 -23 -17 -23
-25 0 -7 -4 -13 -8 -13 -4 0 -13 -13 -19 -29 l-11 -30 243 -1 c138 0 246 3
249 9 10 15 -32 21 -199 26 -185 7 -205 10 -205 31 0 11 6 14 18 10 14 -5 13
-3 -3 9 -17 14 -18 17 -5 25 8 5 13 10 10 11 -3 0 -13 2 -22 4 -10 2 -20 -1
-24 -6z"/>
<path d="M3398 2673 c23 -2 61 -2 85 0 23 2 4 4 -43 4 -47 0 -66 -2 -42 -4z"/>
<path d="M3548 2673 c12 -2 30 -2 40 0 9 3 -1 5 -23 4 -22 0 -30 -2 -17 -4z"/>
<path d="M3633 2673 c9 -2 23 -2 30 0 6 3 -1 5 -18 5 -16 0 -22 -2 -12 -5z"/>
<path d="M926 2629 c-13 -68 -6 -185 14 -232 37 -84 137 -158 251 -187 68 -18
751 -26 789 -10 l30 12 0 137 c0 75 -3 146 -6 158 -10 38 -51 43 -288 37 -121
-3 -306 -1 -411 3 -209 10 -247 20 -317 82 -45 39 -54 39 -62 0z"/>
<path d="M2621 2545 c0 -5 6 -19 14 -29 15 -19 15 -19 15 3 0 12 -4 20 -9 17
-5 -4 -12 0 -14 6 -3 7 -6 9 -6 3z"/>
<path d="M801 2517 c0 -15 -8 -30 -16 -33 -8 -4 -12 -10 -9 -15 3 -5 -2 -6
-10 -3 -11 4 -16 0 -16 -11 0 -9 -4 -14 -9 -11 -5 3 -14 -8 -21 -24 -12 -29
-11 -32 33 -71 26 -22 49 -39 53 -39 4 1 10 -2 13 -7 6 -7 116 -63 126 -63 2
0 -10 16 -27 34 -36 40 -88 133 -88 158 0 9 -9 23 -21 31 -12 9 -16 16 -9 19
7 2 10 16 7 33 l-4 30 -2 -28z"/>
<path d="M686 2421 c-4 -5 -2 -12 3 -15 5 -4 12 -2 15 3 4 5 2 12 -3 15 -5 4
-12 2 -15 -3z"/>
<path d="M825 1178 c-45 -24 -45 -26 -45 -374 l0 -333 26 -20 c34 -27 57 -26
89 2 28 24 32 44 34 205 1 45 5 72 12 72 29 0 73 -51 155 -181 158 -252 219
-300 394 -306 91 -4 97 -3 148 27 28 17 52 34 52 38 0 4 -37 15 -82 24 -205
39 -264 88 -412 341 l-28 47 54 59 c88 95 100 185 37 282 -34 53 -90 94 -157
115 -56 16 -248 18 -277 2z m260 -142 c35 -15 65 -59 65 -96 0 -36 -28 -77
-64 -94 -42 -20 -139 -21 -155 -2 -9 11 -10 135 -2 199 2 13 120 8 156 -7z"/>
<path d="M1531 1114 c-63 -17 -73 -22 -66 -35 4 -5 0 -9 -8 -9 -15 0 -49 -39
-47 -54 1 -5 -4 -12 -12 -17 -10 -6 -13 -49 -13 -187 l0 -179 28 -37 c16 -20
52 -48 80 -61 43 -21 65 -25 142 -25 99 0 125 12 125 57 0 34 -20 41 -122 45
-107 3 -121 11 -134 75 -13 65 -3 73 92 73 91 0 117 8 134 41 9 16 8 26 -5 45
-15 23 -21 24 -108 24 -59 0 -97 4 -105 12 -21 21 -15 86 12 113 18 18 21 27
12 36 -9 10 -8 11 4 3 22 -15 156 -8 152 7 -2 9 0 9 10 2 16 -14 48 6 48 29 0
45 -120 68 -219 42z"/>
<path d="M3000 1101 c-107 -35 -170 -115 -170 -218 0 -97 56 -161 190 -218 68
-29 87 -43 100 -75 17 -41 5 -77 -33 -101 -42 -26 -83 -20 -149 22 l-50 32
-35 -18 c-70 -38 -68 -86 4 -134 62 -42 114 -54 198 -49 101 7 163 46 206 130
23 44 25 134 5 181 -18 43 -78 95 -146 124 -122 54 -140 70 -140 128 0 52 84
82 140 50 71 -40 104 -38 135 9 15 22 15 28 1 53 -31 61 -179 110 -256 84z"/>
<path d="M2132 1077 c-21 -23 -22 -31 -22 -261 0 -143 4 -255 11 -282 15 -58
86 -137 147 -164 156 -69 325 -15 399 129 l33 63 0 243 c0 230 -1 244 -21 269
-16 20 -29 26 -59 26 -30 0 -43 -6 -59 -26 -20 -25 -21 -39 -21 -256 0 -193
-3 -236 -16 -265 -24 -50 -57 -68 -125 -68 -48 0 -62 5 -85 25 -50 46 -54 71
-54 313 0 212 -1 226 -21 251 -27 34 -77 36 -107 3z"/>
<path d="M3421 1074 c-20 -26 -21 -38 -21 -349 l0 -322 26 -27 27 -26 173 0
c161 0 176 2 194 20 28 28 27 85 -2 102 -13 8 -72 15 -138 18 l-115 5 0 80 0
80 106 3 c100 2 109 4 133 29 32 32 33 53 3 81 -21 20 -34 22 -130 22 -123 0
-127 3 -127 90 0 88 3 89 136 89 96 0 119 2 135 17 26 23 24 66 -4 92 -22 21
-32 22 -199 22 l-177 0 -20 -26z"/>
<path d="M1790 858 l0 -53 125 -1 125 -1 0 53 0 54 -125 0 -125 0 0 -52z"/>
</g>
</svg>
